<svg xmlns="http://www.w3.org/2000/svg" width="184.69" height="48.21" viewBox="0 0 184.69 48.21"><path d="M165.71,36c1.48,0,2.77-.12,4.43-.12h8.58c2,0,3.92.12,4.61.12.95,0,1.36-.44,1.36-1.47,0-.54-.1-1.75-.1-3,0-.82.1-1.85.1-2.26,0-1-.48-1.51-1.36-1.51a1.27,1.27,0,0,0-1.35,1.4c0,.34.13,1.06.13,1.69,0,2-.88,2.7-3.33,2.7h-4.33c-2,0-2.45-.44-2.45-2.48V26c0-1.16.25-1.45,1.29-1.45h1.07c1.54,0,2.07.35,2.07,1.32,0,.29-.06.95-.06,1.13a1.18,1.18,0,0,0,1.29,1.32c.91,0,1.35-.5,1.35-1.5s-.19-2.14-.19-3.3.19-2.3.19-3.27-.44-1.6-1.35-1.6A1.21,1.21,0,0,0,176.37,20c0,.19.06.85.06,1.16,0,.94-.53,1.29-2.07,1.29h-1.07c-1,0-1.29-.28-1.29-1.41V17c0-1.92.38-2.27,2.23-2.27h4.31c2.26,0,3.11.63,3.11,2.33,0,.66-.13,1.39-.13,1.69a1.28,1.28,0,0,0,1.35,1.42,1.33,1.33,0,0,0,1.4-1.48c0-.41-.1-1.47-.1-2.26,0-1.16.1-2.23.1-2.7,0-1-.44-1.48-1.4-1.48s-2.67.13-4.62.13h-8.11c-1.66,0-2.95-.13-4.43-.13-1.06,0-1.57.51-1.57,1.42A1.22,1.22,0,0,0,165.49,15c.35,0,1.26-.18,1.75-.18,1,0,1.4.59,1.4,2.13V31.32c0,1.54-.38,2.13-1.4,2.13-.5,0-1.41-.19-1.75-.19a1.23,1.23,0,0,0-1.35,1.29c0,.91.51,1.42,1.57,1.42M155.22,17.06V30.15c0,.35,0,.48-.18.48s-.29-.1-.51-.48l-9.11-16.4A2.27,2.27,0,0,0,143,12.31c-.6,0-1.57.12-2.52.12-1.28,0-2.29-.15-3.42-.15s-1.57.5-1.57,1.41A1.22,1.22,0,0,0,136.85,15c.35,0,1.22-.19,1.7-.19,1.13,0,1.53.63,1.53,2.26V31.18c0,1.64-.4,2.27-1.53,2.27-.48,0-1.36-.19-1.7-.19a1.22,1.22,0,0,0-1.35,1.29c0,.91.5,1.41,1.57,1.41,1.51,0,2.89-.16,4.55-.16s3,.16,4.56.16c1.07,0,1.6-.5,1.6-1.41a1.24,1.24,0,0,0-1.4-1.29c-.35,0-1.22.19-1.69.19-1.13,0-1.54-.63-1.54-2.27V17.53c0-.38,0-.47.22-.47s.25.09.47.47l9.52,16.65c.84,1.5,1.19,1.82,2.73,1.82h.28c1.32,0,1.92-.6,1.92-1.82V17.07c0-1.6.44-2.23,1.6-2.23.38,0,1.16.13,1.48.13a1.14,1.14,0,0,0,1.22-1.06.67.67,0,0,0,0-.2c0-.91-.53-1.41-1.57-1.41-1.44,0-2.67.16-4.24.16s-3.08-.16-4.62-.16c-1,0-1.57.5-1.57,1.41A1.22,1.22,0,0,0,151.94,15c.38,0,1.23-.19,1.73-.19,1.1,0,1.54.63,1.54,2.26M122.43,36c1.54,0,3-.16,4.68-.16s3.17.16,4.71.16c1.05,0,1.61-.5,1.61-1.41a1.23,1.23,0,0,0-1.19-1.29h-.16c-.44,0-1.32.19-1.83.19-1.06,0-1.44-.66-1.44-2.39V17.18c0-1.74.38-2.38,1.44-2.38.51,0,1.4.18,1.83.18a1.23,1.23,0,0,0,1.34-1.12.86.86,0,0,0,0-.16c0-.91-.57-1.42-1.61-1.42-1.54,0-3,.16-4.71.16s-3.14-.16-4.68-.16c-1.07,0-1.6.51-1.6,1.42A1.22,1.22,0,0,0,122.18,15c.41,0,1.32-.18,1.82-.18,1.07,0,1.45.66,1.45,2.38V31.07c0,1.74-.38,2.38-1.45,2.38-.5,0-1.41-.19-1.82-.19a1.22,1.22,0,0,0-1.35,1.29c0,.91.53,1.42,1.6,1.42m-22.14,0c1.48,0,2.76-.13,4.43-.13h8c2,0,3.93.13,4.62.13,1,0,1.4-.44,1.4-1.48,0-.6-.07-2-.07-3.49,0-.91.07-2.09.07-2.58a1.41,1.41,0,0,0-2.8-.29v.21c0,.41.13,1.26.13,2,0,2.33-.88,3.11-3.45,3.11h-3.37c-2.23,0-2.7-.5-2.7-2.73V17.21c0-1.74.41-2.41,1.57-2.41.51,0,1.42.18,1.83.18a1.25,1.25,0,0,0,1.39-1.28c0-.91-.53-1.42-1.6-1.42-1.6,0-3,.16-4.87.16s-3.08-.16-4.58-.16c-1.07,0-1.57.51-1.57,1.42A1.22,1.22,0,0,0,100.07,15c.34,0,1.22-.18,1.69-.18,1,0,1.45.59,1.45,2.13V31.32c0,1.54-.41,2.13-1.45,2.13-.47,0-1.35-.19-1.69-.19a1.22,1.22,0,0,0-1.35,1.29c0,.91.5,1.42,1.57,1.42M85.72,33.58c-3.24,0-3.77-.38-3.77-2.64V16.81c0-1.83.53-2.14,3.73-2.14,5.66,0,8.23,3,8.23,9.52s-2.47,9.39-8.19,9.39M85.94,36q11.4,0,11.4-12c0-7.92-3.71-11.78-11.34-11.78-1.51,0-4.68.16-5.56.16-1.75,0-3.17-.13-4.78-.13-1,0-1.57.47-1.57,1.42A1.22,1.22,0,0,0,75.44,15c.35,0,1.26-.18,1.75-.18,1,0,1.4.59,1.4,2.13V31.32c0,1.54-.38,2.13-1.4,2.13-.5,0-1.41-.19-1.75-.19a1.23,1.23,0,0,0-1.35,1.29c0,.94.54,1.42,1.57,1.42,1.61,0,3-.13,4.78-.13.88,0,4,.16,5.5.16M57.23,24.94c-.56,0-.69-.25-.44-.94l2.74-7.82c.12-.35.19-.44.37-.44s.22.09.35.44L63,24c.25.7.12.94-.44.94Zm11.47,6L62.64,14.16c-.57-1.54-1-1.95-2.45-1.95h-.4c-1.54,0-1.89.41-2.45,1.95L51.25,30.91c-.72,2-1.29,2.32-2.54,2.39a1.21,1.21,0,0,0-1.29,1.31c0,.92.5,1.36,1.5,1.36,1.2,0,2.27-.13,3.65-.13,1.54,0,3,.13,4.36.13,1,0,1.54-.51,1.54-1.42a1.22,1.22,0,0,0-1.35-1.29c-.31,0-.81.13-1.44.13-1,0-1.57-.41-1.57-1.23a4,4,0,0,1,.28-1.28l1-2.74c.16-.47.41-.75.91-.75h7.18a1,1,0,0,1,1,.75l1,2.74a4,4,0,0,1,.29,1.28c0,.82-.54,1.23-1.61,1.23-.59,0-1.06-.13-1.39-.13a1.24,1.24,0,0,0-1.36,1.11,1.15,1.15,0,0,0,0,.19c0,.91.57,1.41,1.54,1.41,1.44,0,2.86-.13,4.49-.13,1.35,0,2.48.13,3.71.13,1,0,1.51-.44,1.51-1.35a1.21,1.21,0,0,0-1.29-1.32c-1.29-.06-1.86-.38-2.58-2.39M26.2,36c1.47,0,2.76-.12,4.42-.12H39.2c2,0,3.92.12,4.62.12.94,0,1.35-.44,1.35-1.47,0-.54-.1-1.75-.1-3,0-.82.1-1.85.1-2.26,0-1-.47-1.51-1.35-1.51a1.26,1.26,0,0,0-1.35,1.4c0,.34.12,1.06.12,1.69,0,2-.88,2.7-3.33,2.7H34.93c-2,0-2.45-.44-2.45-2.48V26c0-1.16.26-1.45,1.29-1.45h1.07c1.54,0,2.07.35,2.07,1.32,0,.29-.06.95-.06,1.13a1.18,1.18,0,0,0,1.29,1.32c.91,0,1.35-.5,1.35-1.5s-.19-2.14-.19-3.3.19-2.3.19-3.27-.44-1.6-1.35-1.6A1.21,1.21,0,0,0,36.85,20c0,.19.06.85.06,1.16,0,.94-.53,1.29-2.07,1.29H33.76c-1,0-1.28-.28-1.28-1.41V17c0-1.92.37-2.27,2.23-2.27H39c2.26,0,3.11.63,3.11,2.33,0,.66-.13,1.39-.13,1.69a1.28,1.28,0,0,0,1.35,1.42,1.33,1.33,0,0,0,1.4-1.48c0-.41-.09-1.47-.09-2.26,0-1.16.09-2.23.09-2.7,0-1-.44-1.48-1.4-1.48s-2.67.13-4.61.13H30.62c-1.65,0-2.95-.13-4.42-.13-1.07,0-1.58.51-1.58,1.42A1.23,1.23,0,0,0,26,15c.34,0,1.25-.18,1.74-.18,1,0,1.4.59,1.4,2.13V31.32c0,1.54-.38,2.13-1.4,2.13-.5,0-1.4-.19-1.74-.19a1.23,1.23,0,0,0-1.36,1.29c0,.91.51,1.4,1.58,1.4M11.62,33.58c-3.23,0-3.77-.38-3.77-2.64V16.81c0-1.83.53-2.15,3.74-2.15,5.65,0,8.23,3,8.23,9.52s-2.48,9.4-8.2,9.4M11.84,36q11.4,0,11.4-12c0-7.92-3.7-11.78-11.34-11.78-1.5,0-4.68.16-5.56.16-1.75,0-3.17-.13-4.77-.13-1,0-1.57.47-1.57,1.42A1.22,1.22,0,0,0,1.35,15c.35,0,1.26-.18,1.75-.18,1,0,1.39.59,1.39,2.13V31.32c0,1.54-.38,2.13-1.39,2.13-.51,0-1.4-.19-1.75-.19A1.23,1.23,0,0,0,0,34.56C0,35.49.53,36,1.57,36c1.6,0,3-.12,4.77-.12.88,0,4.06.15,5.5.15" fill="#fff"/></svg>