<?xml version="1.0" encoding="utf-8"?>
<!-- Generator: Adobe Illustrator 25.4.1, SVG Export Plug-In . SVG Version: 6.00 Build 0)  -->
<svg version="1.1" id="Layer_1" xmlns="http://www.w3.org/2000/svg" xmlns:xlink="http://www.w3.org/1999/xlink" x="0px" y="0px"
	 viewBox="0 0 176.6 181.2" style="enable-background:new 0 0 176.6 181.2;" xml:space="preserve">
<style type="text/css">
	.st0{fill:url(#SVGID_1_);}
	.st1{fill:url(#SVGID_00000115505119937960492230000013861025961894371735_);}
	.st2{fill:url(#SVGID_00000139292244371597004040000011581750469939157646_);}
	.st3{fill:#104595;}
</style>
<g>
	<g>
		<linearGradient id="SVGID_1_" gradientUnits="userSpaceOnUse" x1="136.5095" y1="97.3441" x2="41.66" y2="2.4946">
			<stop  offset="0" style="stop-color:#001855"/>
			<stop  offset="1" style="stop-color:#104595"/>
		</linearGradient>
		<polygon class="st0" points="113.6,118.9 15.8,28.3 46.4,0 88.6,0 119.1,28.3 92.9,52.6 73.8,34.9 80.9,28.3 77.4,25 57.6,25 
			54,28.3 132.6,101.2 		"/>
		
			<linearGradient id="SVGID_00000088108021562304037340000010412233182782454179_" gradientUnits="userSpaceOnUse" x1="94.4725" y1="113.7157" x2="176.5643" y2="113.7157">
			<stop  offset="0" style="stop-color:#002B7F"/>
			<stop  offset="1" style="stop-color:#104595"/>
		</linearGradient>
		<polygon style="fill:url(#SVGID_00000088108021562304037340000010412233182782454179_);" points="113.6,83.5 151.7,118.9 
			176.6,118.9 176.6,143.9 140.6,143.9 94.5,101.2 		"/>
		
			<linearGradient id="SVGID_00000109712867873037207770000009294455275945247927_" gradientUnits="userSpaceOnUse" x1="41.9255" y1="139.8508" x2="145.5427" y2="36.2337">
			<stop  offset="0" style="stop-color:#104595"/>
			<stop  offset="0.5" style="stop-color:#05074B"/>
			<stop  offset="1" style="stop-color:#104595"/>
		</linearGradient>
		<polygon style="fill:url(#SVGID_00000109712867873037207770000009294455275945247927_);" points="140.6,58.5 113.5,83.5 
			75.4,118.9 59.6,118.9 40.5,101.2 67.5,76.2 48.4,58.5 2.3,101.2 48.4,143.9 86.6,143.9 122.6,110.5 151.7,83.5 176.6,83.5 
			176.6,58.5 		"/>
	</g>
	<g>
		<path class="st3" d="M29.9,173.3v-1.8h-2.6l-2,1.8l-2-1.8l0,0l-1.4-1.3l0,0l-1-0.9l0.3-0.2h1.5l0.3,0.2l-0.5,0.5l1.4,1.3l1.9-1.8
			l-2.2-2.1h-3.1l-2.2,2.1l2.4,2.2l-3.4,3.1l3.4,3.1h2.8l2-1.8l2,1.8h2.6v-1.8h-1.8l-1.4-1.3l1.4-1.3H29.9z M22.5,175.8h-1.2
			l-1.4-1.3l2-1.8l2,1.8L22.5,175.8z"/>
		<path class="st3" d="M0,164.2l7.8,0c1.9,0,3.4,0.5,4.4,1.5c0.8,0.8,1.2,1.7,1.2,2.9v0c0,1.9-1,3-2.2,3.6c1.9,0.7,3.1,1.9,3.1,4.1
			l0,0c0,3.1-2.5,4.6-6.3,4.6l-8,0L0,164.2z M7,171c1.6,0,2.7-0.5,2.7-1.8v0c0-1.1-0.9-1.7-2.4-1.7l-3.6,0l0,3.6L7,171z M8,177.8
			c1.6,0,2.6-0.6,2.6-1.8v0c0-1.1-0.8-1.8-2.7-1.8l-4.3,0l0,3.7L8,177.8z"/>
		<path class="st3" d="M33.3,172.6L33.3,172.6c0-4.8,3.6-8.7,8.7-8.8c3.2,0,5.1,1,6.6,2.6l-2.3,2.7c-1.3-1.2-2.6-1.9-4.3-1.9
			c-2.8,0-4.9,2.4-4.9,5.2v0c0,2.9,2,5.3,4.9,5.3c1.9,0,3.1-0.8,4.4-2l2.4,2.4c-1.7,1.9-3.6,3-6.9,3C37,181.2,33.3,177.4,33.3,172.6
			z"/>
		<path class="st3" d="M0,164.2l7.8,0c1.9,0,3.4,0.5,4.4,1.5c0.8,0.8,1.2,1.7,1.2,2.9v0c0,1.9-1,3-2.2,3.6c1.9,0.7,3.1,1.9,3.1,4.1
			v0c0,3.1-2.5,4.6-6.3,4.6l-8,0L0,164.2z M7,171c1.6,0,2.7-0.5,2.7-1.8v0c0-1.1-0.9-1.7-2.4-1.7l-3.6,0l0,3.6L7,171z M8,177.8
			c1.6,0,2.6-0.6,2.6-1.8v0c0-1.1-0.8-1.8-2.7-1.8l-4.3,0l0,3.7L8,177.8z"/>
		<path class="st3" d="M33.3,172.6L33.3,172.6c0-4.8,3.6-8.7,8.7-8.8c3.2,0,5.1,1,6.6,2.6l-2.3,2.7c-1.3-1.2-2.6-1.9-4.3-1.9
			c-2.8,0-4.9,2.4-4.9,5.2v0c0,2.9,2,5.3,4.9,5.3c1.9,0,3.1-0.8,4.4-2l2.4,2.4c-1.7,1.9-3.6,3-6.9,3C37,181.2,33.3,177.4,33.3,172.6
			z"/>
		<path class="st3" d="M58.2,172.6L58.2,172.6c0-4.8,3.6-8.7,8.7-8.8c3.2,0,5.1,1,6.6,2.6l-2.3,2.7c-1.3-1.2-2.6-1.9-4.3-1.9
			c-2.8,0-4.9,2.4-4.9,5.2v0c0,2.9,2,5.3,4.9,5.3c1.9,0,3.1-0.8,4.4-2l2.4,2.4c-1.7,1.8-3.6,3-6.9,3
			C61.9,181.2,58.2,177.4,58.2,172.6z"/>
		<path class="st3" d="M75.4,172.5L75.4,172.5c0-4.8,3.8-8.7,8.9-8.8c5.2,0,8.9,3.9,8.9,8.6v0c0,4.8-3.8,8.7-8.9,8.7
			C79.2,181.2,75.4,177.3,75.4,172.5z M89.4,172.5L89.4,172.5c0-2.9-2.1-5.3-5.1-5.3c-3,0-5,2.4-5,5.2v0c0,2.9,2.1,5.3,5.1,5.3
			C87.4,177.8,89.4,175.4,89.4,172.5z"/>
		<path class="st3" d="M96.6,164.1l3.4,0l7.9,10.3l0-10.3l3.6,0l0,16.8l-3.1,0l-8.2-10.7l0,10.7l-3.6,0L96.6,164.1z"/>
		<path class="st3" d="M119.5,167.4l-5.1,0l0-3.4l13.9,0l0,3.4l-5.1,0l0,13.4l-3.7,0L119.5,167.4z"/>
		<path class="st3" d="M131.1,164l12.7,0l0,3.3l-9,0l0,3.4l7.9,0l0,3.3l-7.9,0l0,3.5l9.1,0l0,3.3l-12.8,0L131.1,164z"/>
		<path class="st3" d="M147.2,164l3.4,0l7.9,10.3l0-10.3l3.6,0l0,16.8l-3.1,0l-8.2-10.7l0,10.7l-3.6,0L147.2,164z"/>
		<path class="st3" d="M170,167.4l-5.1,0l0-3.4l13.9,0l0,3.4l-5.1,0l0,13.4l-3.7,0L170,167.4z"/>
	</g>
</g>
</svg>
