<?xml version="1.0" encoding="utf-8"?>
<!-- Generator: Adobe Illustrator 25.4.1, SVG Export Plug-In . SVG Version: 6.00 Build 0)  -->
<svg version="1.1" id="Layer_1" xmlns="http://www.w3.org/2000/svg" xmlns:xlink="http://www.w3.org/1999/xlink" x="0px" y="0px"
	 viewBox="0 0 174.27 143.93" style="enable-background:new 0 0 174.27 143.93;" xml:space="preserve">
<style type="text/css">
	.st0{fill:#FFFFFF;}
</style>
<g>
	<path class="st0" d="M174.27,83.5V58.47h-36l-27,25.03l0,0l-0.03,0.02L84.26,58.48l0.01-0.01l-19.09-17.7l-0.01,0.01L51.74,28.31
		l3.53-3.28h19.82l3.53,3.28l-7.08,6.56l19.09,17.7l26.17-24.26L86.27,0H44.09L13.56,28.31l32.53,30.16L0,101.2l46.09,42.73h38.18
		l27-25.03l27,25.03h36V118.9h-24.82l-19.09-17.7l19.09-17.7H174.27z M73.09,118.9H57.27l-19.09-17.7l27-25.03l27,25.03l0,0l0,0
		L73.09,118.9z"/>
</g>
</svg>
