<svg xmlns="http://www.w3.org/2000/svg" width="184.69" height="48.21" viewBox="0 0 184.69 48.21"><path d="M.08,5h0V43h13.4V36.85H6.75V25.32h5.33V19.08H6.75v-7.9h6.73V5Z" fill="#fff"/><path d="M14.49,14.14h6v1.53a4.87,4.87,0,0,1,4.15-1.88c3.87,0,4.38,1.71,4.38,6.65V43H23V21.46c0-1.47-.28-1.7-1.07-1.7s-1.35.17-1.35,1.7V43h-6Z" fill="#fff"/><path d="M30,14.14h1.63v-7h6v7.05h2.07v5.79H37.65V35.15c0,1.82.5,2.1,1.79,2.1h.28V43H37.59c-4.15,0-5.94-1.7-5.94-6.47V19.93H30V14.14Z" fill="#fff"/><path d="M47.91,43.21h0c5.61,0,6.67-2.84,6.79-8.91L49.09,34c0,3.24-.45,3.7-1.4,3.7s-1.4-.63-1.4-3.24V31h8.46V22.6c0-6.25-1.62-8.81-6.84-8.81s-7.4,2.05-7.4,8.87V34.47C40.51,40.55,42.19,43.21,47.91,43.21ZM46.29,22.6h0c0-2.5.44-3.07,1.45-3.07s1.4.57,1.4,3v3.18H46.29Z" fill="#fff"/><path d="M56.15,14.14h6.06v1.7a3.7,3.7,0,0,1,2.47-1.7V20c-1.63.11-2.47.51-2.47,4.54V43H56.15Z" fill="#fff"/><path d="M65.24,14.14h1.4v-7h6v7.05h2.13V20H72.64V35.15c0,1.82.51,2.1,1.8,2.1h.33V43H72.59c-4.15,0-6-1.7-6-6.47V20h-1.4v-5.9Z" fill="#fff"/><path d="M79.71,43.1h0c2.64,0,3.59-.34,4.15-1.48V43h5.6V20.61c0-5.17-1.06-6.82-6.61-6.82-5.16,0-7.29,2.39-7.63,7.33l5.77.63c.12-1.54.23-2.22,1.58-2.22,1,0,1.17.4,1.17,2.1v1c-7,1.87-8.46,4.71-8.46,12.21,0,6,.5,8.23,4.43,8.23Zm2.52-5.22h0c-1,0-1.18-.91-1.18-3.47,0-4.26.62-5.11,2.69-5.91v6.76C83.74,37.48,83.41,37.88,82.23,37.88Z" fill="#fff"/><path d="M91.2,7.09h6v6.14h-6Zm0,7.05h6V43h-6Z" fill="#fff"/><path d="M99,14.14h6v1.53a4.87,4.87,0,0,1,4.15-1.88c3.87,0,4.32,1.71,4.32,6.65V43h-6V21.46c0-1.47-.29-1.7-1.07-1.7s-1.35.17-1.35,1.7V43H99Z" fill="#fff"/><path d="M165.12,13.79A4.8,4.8,0,0,0,161,15.67V14.14h-6.1V43H161V21.46c0-1.53.45-1.7,1.29-1.7s1.07.23,1.07,1.7V43h6.11V20.44C169.43,15.5,168.93,13.79,165.12,13.79Zm-6.51,27.27-.9-3-.22.4v2.56h-1V35h1v2l1.07-2h1l-1.12,2,1.24,4.09Zm9.14,0h-2.63V35h1v5.17h1.62Z" fill="#fff"/><path d="M180.14,19.93V14.14H178v-7h-6v7.05h-1.62v5.79H172V36.57c0,4.77,1.79,6.47,6,6.47h2.18V37.25h-.34c-1.28,0-1.79-.28-1.79-2.1V19.93Zm-4.42,18.8v2.33h-1V38.78h0L173.47,35h1.07l.67,2.5.73-2.5h.95Z" fill="#fff"/><path d="M153.5,31V22.6c0-6.25-1.62-8.81-6.89-8.81s-7.41,2.05-7.41,8.87V34.47c0,6.08,1.69,8.74,7.41,8.74s6.67-2.84,6.84-8.91L147.78,34c0,3.24-.44,3.7-1.39,3.7S145,37.08,145,34.47V31ZM145,22.6c0-2.5.45-3.07,1.46-3.07s1.4.57,1.4,3v3.18H145ZM148.79,35h2.75v.91h-1.68v1.36h1.35v.85h-1.35v2h1.68v.91h-2.75Zm-4.53.91h-1.69v1.36H144v.85h-1.4v2h1.69v.91h-2.7V35h2.7Z" fill="#fff"/><path d="M133.37,13.79a4.66,4.66,0,0,0-4.26,2.45c-.44-1.76-1.45-2.45-3.87-2.45a4.53,4.53,0,0,0-4,1.88V14.14h-6V43h6V21.46c0-1.53.39-1.7,1.23-1.7s1,.23,1,1.7V43h6V21.46c0-1.3.23-1.7,1.24-1.7.78,0,1,.23,1,1.7V43h6V20.44C137.75,15.27,137.25,13.79,133.37,13.79Zm3,27.27h-1l-.56-3.87-.61,3.87h-1l-1-6.08h1l.34,2.61.17,1.19.22-1.19.39-2.61h.9l.45,2.61.17,1.19.16-1.19L136.4,35h1Z" fill="#fff"/><path d="M181.26,9.36h0a3.06,3.06,0,0,0,.34.57,2.4,2.4,0,0,0,.56.34,1.45,1.45,0,0,0,.73.12,1.31,1.31,0,0,0,.67-.12,1.19,1.19,0,0,0,.56-.34,2.57,2.57,0,0,0,.4-.57,1.77,1.77,0,0,0,.17-.73,1.61,1.61,0,0,0-.17-.74,1.78,1.78,0,0,0-.4-.57.94.94,0,0,0-.56-.34,1.48,1.48,0,0,0-.67-.17,1.57,1.57,0,0,0-.73.17,1.53,1.53,0,0,0-.56.34,2,2,0,0,0-.34.57,1.61,1.61,0,0,0-.16.74A1.75,1.75,0,0,0,181.26,9.36Zm.34-1.3h0a1.42,1.42,0,0,1,.28-.46,3.75,3.75,0,0,1,.45-.34,1.86,1.86,0,0,1,.56-.11,1.79,1.79,0,0,1,.56.11,3.75,3.75,0,0,1,.45.34,1.42,1.42,0,0,1,.28.46,1.6,1.6,0,0,1,.12.57,1.87,1.87,0,0,1-.12.56,1.32,1.32,0,0,1-.28.46,1.15,1.15,0,0,1-.45.28.86.86,0,0,1-.56.12.88.88,0,0,1-.56-.12,1.15,1.15,0,0,1-.45-.28,1.32,1.32,0,0,1-.28-.46,2.22,2.22,0,0,1-.11-.56A1.86,1.86,0,0,1,181.6,8.06Zm1.57.68h0a.32.32,0,0,0,.28-.17.35.35,0,0,0,.17-.34c0-.11-.06-.17-.06-.23s-.11-.17-.17-.17-.16-.11-.27-.11a2.84,2.84,0,0,0-.29-.06h-.61V9.54h.39V8.8h.17l.45.74h.39l-.45-.74V8.74ZM182.89,8h0c.11,0,.23,0,.28.06s.06.11.06.17a.34.34,0,0,1-.11.23.6.6,0,0,1-.34,0h-.17V8Z" fill="#fff"/></svg>