<svg xmlns="http://www.w3.org/2000/svg" width="184.69" height="48.21" viewBox="0 0 184.69 48.21"><path d="M89.39,13.15a7.53,7.53,0,0,0-3.63.75,11.85,11.85,0,0,0-5.51,5.5l-.48.86.06-1.53c0-.84.09-2.41.13-3.49l.07-2H79.7c-.42,0-13.58,2.63-14,2.8s-.3.22-.3.85,0,.74.3.79l1.34.27c1.16.22,1.51.4,2,1,.89,1.17,1.07,3.24,1.06,12,0,7.15-.16,10.72-.5,11.83a2.91,2.91,0,0,1-2.44,2.31c-.41.07-1,.18-1.22.24l-.46.1,0,.92c0,.64,0,.95.14,1s4.6.1,10,.08l9.83,0,0-1a2.56,2.56,0,0,0-.07-1A19.22,19.22,0,0,1,81.91,45c-1.11-.46-1.65-1.45-1.88-3.47-.27-2.37-.43-8.27-.36-13.1s.08-4.9.39-5.23a6.4,6.4,0,0,1,4.13-1.36,9.24,9.24,0,0,1,4.06,1,5.4,5.4,0,0,0,1.4.54c.17-.07,3.4-8.59,3.4-9,0-.6-1.83-1.2-3.66-1.2" fill="#fff"/><path d="M50.65,45.63C47,46.71,44.42,43.25,43.41,36a66.77,66.77,0,0,1,0-11.4c.71-5.83,2.51-8.79,5.34-8.79a3.61,3.61,0,0,1,3,1.32c2.38,2.39,3.51,7,3.49,14.16,0,5.73-.58,9.34-1.86,11.79a5.43,5.43,0,0,1-2.72,2.55M65.43,28c-.69-5.9-3.19-10.21-7.32-12.64-4.58-2.7-11.55-2.85-16.49-.37a16,16,0,0,0-7.79,9.22,23.51,23.51,0,0,0,0,13.65,14.79,14.79,0,0,0,3.81,6.41,14.45,14.45,0,0,0,8.19,4,36.18,36.18,0,0,0,6,0A17.34,17.34,0,0,0,54,47.74c5.84-1.7,9.83-6.18,11.19-12.61A30.73,30.73,0,0,0,65.43,28" fill="#fff"/><path d="M17.49,4.52h4.18c4.8,0,5.59.1,7.29.93,2.46,1.22,4.26,3.61,5.84,7.77.64,1.69.63,1.69,2.05,1.26l.95-.29-.09-6.13c-.05-3.37-.12-6.37-.17-6.66L37.45.87,19.12.83C9,.81.6.83.36.87L-.08,1,0,2,0,3.13l1.4.16C3.21,3.51,4.29,4,4.93,5c1.45,2.11,1.71,5,1.7,18.63,0,14.54-.3,18.06-1.7,19.89C4.21,44.42,3.62,44.73,2,45c-2.13.39-2.06.34-2.06,1.44,0,.61.06,1,.17,1s23.68.1,23.93,0,.31-1.86,0-2a12.91,12.91,0,0,0-1.76-.34,13,13,0,0,1-2.06-.46c-1.54-.67-2.39-2.52-2.71-5.87-.23-2.39-.41-6.82-.41-10.08v-3l1.43,0c3,.1,4.61.26,5.25.54,1.37.6,2.48,2.3,3.06,4.67l.31,1.26,1.08,0,1.09,0v-16l-1.09,0-1.08,0-.31,1.26c-.62,2.44-1.62,3.94-3.09,4.62a5.81,5.81,0,0,1-2.46.44c-1,.06-2.29.11-3,.12H17.07v-4c0-4,.21-12.37.35-13.68Z" fill="#fff"/><path d="M183.81,32.67c-1.11-2.24-3.17-3.77-7.48-5.57-3.52-1.46-5.28-2.48-6.36-3.66a3.71,3.71,0,0,1-1.05-3.16,4.26,4.26,0,0,1,1.24-3,4.31,4.31,0,0,1,4.27-1.16c2.87.61,4.71,2.6,6.3,6.8.56,1.49.63,1.54,1.64,1.17l.65-.24,0-1.73c0-.95-.06-2.94-.11-4.43L182.8,15l-.48-.21a27.57,27.57,0,0,0-10.89-1.51c-3.71.34-6.43,1.52-8.53,3.69a9.79,9.79,0,0,0-2.85,7.69,8.38,8.38,0,0,0,2.4,5.84c1.42,1.45,2.62,2.14,6,3.47,5.52,2.16,7,3.43,7,6.09a4.69,4.69,0,0,1-3.36,4.65,8.74,8.74,0,0,1-3.78,0c-2.74-.72-4.84-3.1-6.63-7.5l-.46-1.13-.54,0a2.91,2.91,0,0,0-.91.2l-.36.18,0,1.92c0,1.06.07,3.29.12,5l.08,3,.62.26a36.92,36.92,0,0,0,7.38,1.62c.29,0,1.91,0,3.59,0,2.91,0,3.12,0,4.59-.44,4.33-1.13,7.13-3.54,8.37-7.2a8.36,8.36,0,0,0,.49-3.14,8.72,8.72,0,0,0-.86-4.84" fill="#fff"/><path d="M140.44,26.61l-2.49,0v-.54a15.81,15.81,0,0,1,.18-1.73c.83-5.35,2.83-8.56,5.33-8.56,2.3,0,3.71,3.16,4,9l.09,1.64-2.31.08c-1.27,0-3.44.1-4.8.12m9.9-12.11c-3.65-1.83-9.29-1.7-13.41.31a15.58,15.58,0,0,0-8.09,9.57,18.75,18.75,0,0,0-1,7.24,20.16,20.16,0,0,0,.33,3.78c1.55,6.88,6.26,11.55,12.84,12.74a25.38,25.38,0,0,0,6.22,0,17.1,17.1,0,0,0,6-2.33c1.86-1.25,3.76-3.14,3.76-3.73,0-.35-.64-1.17-.91-1.17a4.29,4.29,0,0,0-1.15.59,10.13,10.13,0,0,1-6,1.66,9.49,9.49,0,0,1-7.57-3,8.41,8.41,0,0,1-1.81-2.4,16.49,16.49,0,0,1-1.74-7.14l0-1.16,9.83,0,9.83,0,0-.67a16.77,16.77,0,0,0-.11-2.12c-.61-6-3-10.08-7.13-12.14" fill="#fff"/><path d="M105.26,45.21c-.17-.45-.37-16-.29-22.23l.07-4.86.88-.26A7.47,7.47,0,0,1,108,17.6a3.58,3.58,0,0,1,2.22.51c2.28,1.12,3.84,3.93,4.57,8.19a39.34,39.34,0,0,1,.06,7.77c-.6,4.64-2.11,8.39-4.13,10.2a4.81,4.81,0,0,1-2.52,1.29,6.14,6.14,0,0,1-2.18,0c-.53-.05-.65-.11-.76-.39m9.47-31.35a12.12,12.12,0,0,0-3-.14,13.26,13.26,0,0,0-5.58,1.22c-.57.25-1.06.47-1.1.47s0-3.46,0-7.7c.07-6,0-7.71-.07-7.71-.44,0-14,2.58-14.15,2.7s-.16.38-.13.81c0,.75,0,.7,1.6,1.07a4.4,4.4,0,0,1,1.3.48,4.3,4.3,0,0,1,1.32,2.46c.26,1,.29,1.65.41,8.16s.09,13.47-.09,26l-.08,5.2,1,.22c1.4.32,5.43,1,6.75,1.12a50,50,0,0,0,7.87,0,16.09,16.09,0,0,0,13.11-10.09,24.2,24.2,0,0,0,1.33-5.41,31.59,31.59,0,0,0-.24-7.48c-1.32-6.07-5.11-10.26-10.22-11.32" fill="#fff"/></svg>