<svg xmlns="http://www.w3.org/2000/svg" width="184.69" height="48.21" viewBox="0 0 184.69 48.21"><polygon points="107.5 41.77 108.08 39.84 103.52 39.84 104.07 38.05 109.63 38.05 110.22 36.1 101.99 36.1 99.09 45.59 107.33 45.59 107.92 43.64 102.35 43.64 102.93 41.77 107.5 41.77" fill="#fff"/><path d="M96.38,39.18l0,.09c-.3.95-1,1.27-2.07,1.27H92.17L93,37.89h2.32c1,0,1.33.45,1.07,1.29m-.52-3.07h-5L88,45.59h2.68l1-3.26h1.86l1.39,3.26h2.83L96,42.08a3.47,3.47,0,0,0,3-2.45l.07-.23c.61-2-.63-3.29-3.22-3.29" fill="#fff"/><path d="M139.46,39.18l0,.09c-.29.95-1,1.27-2.07,1.27h-2.11l.81-2.65h2.32c1,0,1.34.45,1.08,1.29m-.52-3.07h-5L131,45.59h2.67l1-3.26h1.87L138,45.59h2.84l-1.69-3.51a3.48,3.48,0,0,0,3-2.45l.07-.23c.61-2-.64-3.29-3.22-3.29" fill="#fff"/><polygon points="160.13 41.77 160.72 39.84 156.15 39.84 156.71 38.05 162.27 38.05 162.86 36.1 154.63 36.1 151.73 45.59 159.97 45.59 160.56 43.64 154.99 43.64 155.57 41.77 160.13 41.77" fill="#fff"/><path d="M117.54,39.34l-.07.21c-.27.89-1,1.27-2.08,1.27h-1.93l.9-2.93h2.07c1.13,0,1.43.4,1.11,1.45m-.64-3.23h-4.67l-2.89,9.48H112l.9-3h2.76c2.62,0,3.91-.87,4.5-2.79l.11-.33c.58-1.9-.37-3.37-3.38-3.37" fill="#fff"/><polygon points="152.54 38.05 153.13 36.11 143.93 36.11 143.33 38.05 146.66 38.05 144.36 45.59 147.05 45.59 149.34 38.05 152.54 38.05" fill="#fff"/><path d="M170.33,39.18l0,.09c-.3.95-1,1.27-2.08,1.27h-2.11l.81-2.65h2.32c1,0,1.34.45,1.08,1.29m-.52-3.07h-5l-2.9,9.48h2.67l1-3.26h1.84l1.42,3.26h2.83L170,42.08a3.48,3.48,0,0,0,3-2.45l.07-.23c.61-2-.63-3.29-3.22-3.29" fill="#fff"/><path d="M128.41,40.24,128,41.52a2.52,2.52,0,0,1-2.72,2.06c-1.69,0-2.3-.9-1.87-2.33l.4-1.29a2.52,2.52,0,0,1,2.71-2.06c1.7,0,2.3.91,1.87,2.34M127,35.9c-3.25,0-5,1.19-5.81,3.9l-.26.84c-1,3.33.89,4.94,3.85,4.94,3.26,0,5-1.18,5.82-3.9l.25-.83c1-3.33-.89-5-3.85-5" fill="#fff"/><polygon points="98.42 4.18 98.91 2.6 93.07 2.6 90.85 9.91 96.68 9.91 97.17 8.33 93.42 8.33 93.82 7.04 96.78 7.04 97.26 5.49 94.3 5.49 94.7 4.18 98.42 4.18" fill="#fff"/><polygon points="83.43 4.18 83.91 2.6 77.31 2.6 76.83 4.18 79.19 4.18 77.44 9.91 79.54 9.91 81.29 4.18 83.43 4.18" fill="#fff"/><polygon points="89.48 2.61 88.62 5.4 86.21 5.4 87.06 2.61 84.96 2.61 82.73 9.91 84.83 9.91 85.73 6.95 88.15 6.95 87.25 9.91 89.35 9.91 91.58 2.61 89.48 2.61" fill="#fff"/><path d="M130.66,31.72a4.23,4.23,0,0,1-3.09,1.42c-1.82,0-3.13-1.11-3.13-4.52,0-3.95,2.07-11.58,5.18-14.7a4.22,4.22,0,0,1,3.08-1.42c1.82,0,3.13,1.12,3.13,4.53,0,3.94-2.06,11.57-5.17,14.69M132.36,12c-6.26,0-11.62,6.52-11.62,13.21,0,4.93,3.44,8.36,7.17,8.36,6.26,0,11.63-6.53,11.63-13.22,0-4.93-3.45-8.35-7.18-8.35" fill="#fff"/><path d="M40.33,31.72a4.23,4.23,0,0,1-3.09,1.42c-1.82,0-3.13-1.11-3.13-4.52,0-3.95,2.07-11.58,5.18-14.7a4.21,4.21,0,0,1,3.08-1.42c1.82,0,3.13,1.12,3.13,4.53,0,3.94-2.06,11.57-5.17,14.69M42,12c-6.26,0-11.62,6.52-11.62,13.21,0,4.93,3.44,8.36,7.17,8.36,6.26,0,11.63-6.53,11.63-13.22C49.21,15.46,45.76,12,42,12" fill="#fff"/><path d="M150.59,31.72a4.2,4.2,0,0,1-3.08,1.42c-1.82,0-3.13-1.11-3.13-4.52,0-3.95,2.06-11.58,5.17-14.7a4.25,4.25,0,0,1,3.09-1.42c1.81,0,3.13,1.12,3.13,4.53,0,3.94-2.07,11.57-5.18,14.69M152.29,12c-6.26,0-11.62,6.52-11.62,13.21,0,4.93,3.44,8.36,7.18,8.36,6.25,0,11.62-6.53,11.62-13.22,0-4.93-3.44-8.35-7.18-8.35" fill="#fff"/><path d="M117.5,12.15a2.33,2.33,0,1,0,0,4.65,2.32,2.32,0,0,0,2.2-1.57,8.46,8.46,0,0,1,.13,1.53c0,7.06-6,16.07-10.45,16.07-1.47,0-2.49-.92-1.11-4.9L113,12.56h-4.31l-3.06,10c-2.24,7.13-5.56,10.29-7.51,10.29-1.36,0-2.18-1-1.13-4.4l4.81-15.87-.11-.13c-.79.06-2.61.13-4.79.13H94.3l-.28.27.14.18H97.3l-4,13c-1.53,4.95.78,7.58,4.18,7.58,2.42,0,5-2.67,6.85-6.73-.83,4.13,1.17,6.73,4.15,6.73,6.24,0,11.86-10.21,11.86-17,0-3.3-1.23-4.43-2.87-4.43" fill="#fff"/><polygon points="29.21 32.64 25.18 32.64 34.21 3.05 37.91 3.05 38.19 2.78 38.04 2.61 26.01 2.61 25.72 2.87 25.88 3.05 29.59 3.05 25.18 17.5 13.26 17.5 17.66 3.05 21.05 3.05 21.33 2.78 21.18 2.61 9.15 2.61 8.87 2.87 9.02 3.05 13.04 3.05 4.01 32.64 0.32 32.64 0.04 32.9 0.18 33.08 12.22 33.08 12.51 32.81 12.35 32.64 8.64 32.64 13.12 17.94 25.05 17.94 20.56 32.64 17.18 32.64 16.89 32.9 17.04 33.08 29.08 33.08 29.36 32.81 29.21 32.64" fill="#fff"/><path d="M59.44,25.81l-.21.15c-2.52,5.77-3.91,6.69-4.82,6.69S53,32,53.94,29L62,2.61l-.11-.13c-.79.06-2.6.13-4.78.13H54.51l-.28.26.15.18h3.13L50.18,27.1c-1.2,4.41.44,6.51,3.28,6.51,1.77,0,3.57-1.19,6.18-7.51Z" fill="#fff"/><path d="M70.42,25.81l-.21.15c-2.52,5.77-3.91,6.69-4.82,6.69S64,32,64.92,29L73,2.61l-.11-.13c-.79.06-2.6.13-4.78.13H65.49l-.28.26.15.18h3.13L61.16,27.1c-1.2,4.41.44,6.51,3.28,6.51,1.77,0,3.57-1.19,6.18-7.51Z" fill="#fff"/><path d="M85.15,21.4c-2.57,8.44-5.88,11.43-7.91,11.43-1.38,0-2.09-1.1-1.29-3.87l4.94-16.4-.11-.13c-.79.06-2.61.13-4.79.13H73.43l-.29.27.16.17h3.13l-4,13c-1.52,5.06.83,7.62,4.2,7.62,2.32,0,4.81-2.23,6.78-6.52L80.16,37.7c-1.78,5.92-3.89,7.57-6.15,7.57s-4.17-.84-4.94-2.14a2.32,2.32,0,0,0,1.51.54,2.45,2.45,0,0,0,0-4.9,2.55,2.55,0,0,0-2.48,2.69c0,2.42,2.41,4.27,5.83,4.27,4.35,0,8.76-2.16,11-9.62l7.18-23.55H87.85Z" fill="#fff"/><path d="M175.34,19.07,174,23.51c-2.37,7.77-5.66,9.63-7.48,9.63-1.63,0-2.26-1.17-2.26-3.89,0-7.6,4.94-16.68,8.65-16.68,1.88,0,3.65,2.52,2.46,6.5m9.31-16.46-.11-.13c-.79,0-2.61.13-4.79.13h-2.56l-.28.26.15.18h3.13l-4,13.22c-.1-2.6-1.68-4.24-3.95-4.24-5.66,0-11.73,7.13-11.73,13.9,0,5.31,3,7.67,5.68,7.67,2.36,0,4.82-1.85,6.58-5.5-.69,3.79.93,5.5,3.39,5.5,1.77,0,3.56-1.18,6.18-7.51l-.2-.28-.22.15c-2.51,5.77-3.9,6.69-4.81,6.69s-1.38-.64-.48-3.69Z" fill="#fff"/></svg>