<?xml version="1.0" encoding="utf-8"?>
<!-- Generator: Adobe Illustrator 27.1.1, SVG Export Plug-In . SVG Version: 6.00 Build 0)  -->
<svg version="1.1" id="Layer_1" xmlns="http://www.w3.org/2000/svg" xmlns:xlink="http://www.w3.org/1999/xlink" x="0px" y="0px"
	 viewBox="0 0 184.7 48.2" style="enable-background:new 0 0 184.7 48.2;" xml:space="preserve">
<style type="text/css">
	.st0{fill:#FFFFFF;}
</style>
<g>
	<path class="st0" d="M47.4,0.6H19.9L24,24.2l-4.1,23.5h27.4l3.9-23.2L47.4,0.6z M44.2,33.3l-0.7,4c-0.3,1.7-0.9,2.9-1.7,3.7
		c-0.1,0.1-0.1,0.1-0.2,0.2c0,0,0,0,0,0c-0.1,0-0.1,0.1-0.2,0.1l0,0c-0.1,0.1-0.2,0.2-0.3,0.2c-0.9,0.6-2,0.8-3.4,0.8h-3.1
		c-3.8,0-5.8-2.1-5.8-6.1v-7.1v-6.8V12.3c0-4.1,1.9-6.1,5.8-6.1h3.1c1.4,0,2.5,0.3,3.4,0.8c0.1,0.1,0.2,0.2,0.3,0.2l0,0
		c0.1,0,0.1,0.1,0.2,0.1c0,0,0,0,0,0c0.1,0.1,0.1,0.1,0.2,0.2c0.8,0.9,1.4,2.1,1.7,3.7l0.7,4c0.9-0.1,1.6-0.3,1.6-0.3l-3.4,4.2
		l-0.7-0.4l-3.9-2.5c0.1,0,0.8-0.1,1.6-0.3l-0.6-3.6c-0.1-0.6-0.3-1-0.6-1.3c-0.3-0.4-0.9-0.7-1.8-0.7h-0.9c-1.3,0-1.9,0.7-1.9,2.1
		v9.8v6.8V36c0,1.4,0.7,2.1,1.9,2.1h0.9c0.8,0,1.4-0.2,1.8-0.7c0.3-0.3,0.5-0.7,0.6-1.3l0.7-3.7c-0.9-0.1-1.5-0.3-1.6-0.3l3.9-2.3
		l0.7-0.4l3.4,4.2C45.8,33.6,45.1,33.5,44.2,33.3z"/>
	<path class="st0" d="M87.8,42.1v-4.4h-6.6L81.1,5.9h-4.8l0.1,36.2H87.8L87.8,42.1z M102.1,42.1v-4.4h-6.6L95.4,5.9l-4.9,0l0.1,36.2
		H102.1L102.1,42.1z M104.8,5.9l4.8,0l0.1,36.2l-4.8,0L104.8,5.9z M145.8,42l0-4.4l-7.1,0V25.6h6.3v-4.4l-6.4,0v-11h7.1l0-4.4l-12,0
		l0.1,36.2L145.8,42z M123.7,42c3.9,0,5.8-1.8,5.8-5.3l-0.1-24c0-4.6-2.3-7-6.8-7l-8.4,0l0.1,36.2L123.7,42z M122.4,10.2
		c1.4,0,2.2,0.9,2.2,2.6l0,23.2c0,1.1-0.6,1.6-1.9,1.6H119l0-27.4H122.4z M154.1,42l0-14.6h2.9l3.2,14.6h4.6l-3.5-15.1
		c1.9-0.8,2.9-2.8,2.9-6l0-8.9c0-4.1-1.9-6.2-5.6-6.2l-9.5,0l0.1,36.2L154.1,42z M157.2,10.1c1.4,0,2.2,0.9,2.2,2.6v7.8
		c0,1.7-0.7,2.6-2.2,2.6H154V10.1H157.2z M61.7,42.2h4.5c3.9,0,5.9-2.1,5.8-6.2l-0.1-23.9c0-4.1-2-6.2-5.8-6.2h-4.6
		c-3.9,0-5.8,2.1-5.8,6.2L55.8,36C55.8,40.1,57.8,42.2,61.7,42.2z M62.7,10.4H65c1.4,0,2.2,0.7,2.2,2.1l0,23.2
		c0,1.4-0.6,2.1-1.9,2.1h-2.5c-1.4,0-2.2-0.7-2.2-2.1l0-23.2C60.6,11.1,61.3,10.4,62.7,10.4z"/>
</g>
</svg>
