<svg xmlns="http://www.w3.org/2000/svg" width="184.69" height="48.21" viewBox="0 0 184.69 48.21"><path d="M176.4,15.33l-.24,1.08L174,17a2.65,2.65,0,0,0-1.2.89l-10,12.79L159,43.25c-.2.65.06,1,.48,1.13l2.63.66-.37,1.07H148.54l.35-1.07,2.46-.6a1.64,1.64,0,0,0,1.25-1.31l3.77-12.67-3.29-12.38c-.16-.59-.32-1.08-1-1.25l-1.55-.42.24-1.08H162l-.23,1.08-1.92.54c-.67.18-.82.53-.65,1.19l2.69,10.52,8-10.64a1,1,0,0,0,.24-.59c0-.24-.2-.41-.47-.48l-2.16-.54.3-1.08Z" fill="#fff"/><path d="M150.22,22.33h-1.49l-1.32-4a1.17,1.17,0,0,0-1.31-.95h-3.29L135.1,43.25c-.2.65,0,1,.6,1.19l2.15.6-.37,1.07H124.64L125,45l2.27-.54a1.64,1.64,0,0,0,1.49-1.43l7.64-25.7h-3.82a1.85,1.85,0,0,0-1.44.89L128.46,22H127l2.39-7.41h1a1.15,1.15,0,0,0,1.13.77h16.08a1.51,1.51,0,0,0,1.55-.77h1ZM126.37,22h-1.49l-1.44-3.82a1.14,1.14,0,0,0-1.19-.78h-6.1l-3.47,11.72h5.8c.6,0,1-.3,1.37-.9l1.62-2.33H123l-2.75,9.32h-1.5l.06-3.29c0-.59-.36-.78-1-.78h-5.74L108.26,44h8.43a2.22,2.22,0,0,0,2.15-.95l3.35-4.19h1.61l-3.4,8.07h-1.08c-.3-.59-.73-.83-1.79-.83H98.22L98.59,45l2.33-.6a1.65,1.65,0,0,0,1.19-1.31l7.41-25c.14-.48,0-.91-.37-1l-2.09-.66.3-1.08H124a1.39,1.39,0,0,0,1.31-.77h1Z" fill="#fff"/><path d="M176.1,7.26a218.88,218.88,0,0,1-45.78,4.85c-36.46,0-62-5-72.86-7.53L11.85,47.73l-3.7.48L21.54,7.44c-2.14,1.13-9.32,3-12.61,3.23-1,.08-1.08-.5-.6-.78C11.5,8,13,6.58,14.43,3,21,4.56,26,3.33,31.94,1.11L19.8,35.42,52.08.39A297.76,297.76,0,0,0,111.37,6.6c15.7,0,29.5-2.47,36.58-5.38,10,6,21.39,5.44,27.91,5,.95-.06,1.07.83.24,1" fill="#fff"/><path d="M105.87,15.33l-.29,1.08-2.51.72a1.26,1.26,0,0,0-.9,1L94.76,43c-.23.74-.39,1.21.53,1.49l1.8.54-.37,1.07H84.83L85.19,45l1.74-.54a1.82,1.82,0,0,0,1.49-1.43l7.35-25c.15-.52,0-.89-.42-1l-2-.66.3-1.08ZM88.12,22.92c0,4.68-3.71,8.73-9.74,8.49a14.51,14.51,0,0,1-3.47-.54c0,5.72,1.75,11.54,5.13,11.54,2.1,0,2.72-1.75,3-3.23,0-.24.25-.41.54-.12a4.87,4.87,0,0,1,1.5,3.59c0,3.51-2.22,5.08-5.56,5.08C71,47.73,70.65,35.55,72,28.06c.07-.41.24-.47.54-.29a7.61,7.61,0,0,0,4.07,1c2.74,0,5.32-2.17,5.32-6.09s-3.26-6.34-8.07-6.34l-8,26.78a2.41,2.41,0,0,0-.12.65c0,.36.14.55.54.66l2.27.6-.36,1.07H56.38L56.75,45l1.79-.54c.55-.16.82-.49,1.08-1.37L67.5,16.35c-3.42.73-5.08,2-5.08,3.94a3.29,3.29,0,0,0,.6,2.16,1,1,0,0,1,.18.59c0,.45-.38.84-1.49.84a3.2,3.2,0,0,1-3.41-3.53c0-1.48.91-6.51,14-6.51,11.07,0,15.84,3.56,15.84,9.08M49.75,20.77,37.49,35.89H48.37ZM56.09,45l-.37,1.07H44.49L44.85,45l2-.54a1.19,1.19,0,0,0,.89-1.19l.48-5.2H35.58l-4.12,5a1.41,1.41,0,0,0-.42.77c0,.27.14.44.48.54l1.9.6-.36,1.07H23.63L24.05,45l2-.48a4,4,0,0,0,1.91-1.31l25.53-30,2.63-.48L53.63,43.37c-.05.65,0,1.07.78,1.25Z" fill="#fff"/></svg>