<svg xmlns="http://www.w3.org/2000/svg" width="184.69" height="48.21" viewBox="0 0 184.69 48.21"><path d="M97.8,28.36V19.69h23.29A4.28,4.28,0,0,1,125.38,24V34.25A9.67,9.67,0,0,1,115.73,44H100.81a19.9,19.9,0,1,1,0-39.8h23.11v9.15H100.81a10.75,10.75,0,1,0,0,21.5h15.42V28.36Zm-20-24.25V44H73a4.25,4.25,0,0,1-4.26-4.24V4.11Zm90.3,0a4.23,4.23,0,0,1,4.24,4.24V34.81a9.62,9.62,0,0,1-9.63,9.61h-.16a9.44,9.44,0,0,1-8.22-4.56L139,13a.57.57,0,0,0-.54-.29.59.59,0,0,0-.53.32.47.47,0,0,0-.08.29V44H133a4.26,4.26,0,0,1-4.27-4.24V13.31a9.62,9.62,0,0,1,9.63-9.6h.16a9.71,9.71,0,0,1,8.3,4.69l15.23,26.68a.74.74,0,0,0,.56.35.66.66,0,0,0,.54-.3,1.13,1.13,0,0,0,.08-.24V4.16h4.85Z" fill="#fff"/><path d="M23.13,15.34a61.65,61.65,0,0,0-6.46,1A21.32,21.32,0,0,1,28.76,4.32a61.23,61.23,0,0,0-1.07,6.46A16.77,16.77,0,0,0,23.13,15.34Zm22.06-4.59A56.79,56.79,0,0,0,44.1,4.32,21.24,21.24,0,0,1,56.21,16.38a54.66,54.66,0,0,0-6.46-1,16.23,16.23,0,0,0-4.56-4.56ZM27.69,37.38a54.5,54.5,0,0,0,1.07,6.45A21.35,21.35,0,0,1,16.67,31.75a59.06,59.06,0,0,0,6.43,1.06h0A15.57,15.57,0,0,0,27.69,37.38Zm22.14-4.57a58.65,58.65,0,0,0,6.43-1.06A21.34,21.34,0,0,1,44.12,43.86a60.44,60.44,0,0,0,1.1-6.4V37.4a16.23,16.23,0,0,0,4.56-4.56A.06.06,0,0,0,49.83,32.81ZM60.58,20.14V28c-3.71,1.71-9.23,2.41-11.09,2.62a7.62,7.62,0,0,1-1.29.13l-5.94-6.64,5.94-6.64a5.42,5.42,0,0,1,1.1.1C51.22,17.77,56.85,18.43,60.58,20.14ZM24.7,17.45l5.95,6.64L24.7,30.73a7.41,7.41,0,0,1-1.28-.13c-1.87-.21-7.39-.91-11.1-2.62V20.14c3.76-1.73,9.37-2.4,11.29-2.59A8.83,8.83,0,0,1,24.7,17.45Zm5.1,18.38,6.64-5.92,6.64,5.92A7.41,7.41,0,0,1,43,37.11C42.74,39,42,44.5,40.33,48.21H32.52c-1.74-3.74-2.4-9.37-2.59-11.26A6.12,6.12,0,0,1,29.8,35.83ZM32.52,0h7.84c1.71,3.71,2.4,9.23,2.62,11.1a7.41,7.41,0,0,1,.13,1.28l-6.64,5.95-6.65-5.95a5.46,5.46,0,0,1,.11-1.1C30.12,9.36,30.76,3.73,32.52,0Z" fill="#fff"/></svg>