<svg id="Layer_1" data-name="Layer 1" xmlns="http://www.w3.org/2000/svg" viewBox="0 0 146.96 17.46"><defs><style>.cls-1{fill:#fff;}</style></defs><title>Artboard 1</title><path class="cls-1" d="M29.89,9.49V7.65H27.25l-2,1.84-2-1.83h0l-1.4-1.3h0l-1-.91.26-.24h1.45l.26.24-.52.48,1.4,1.3,1.92-1.78L23.44,3.37H20.35L18.12,5.44,20.5,7.65l-3.38,3.13,3.38,3.13h2.8l2-1.83,2,1.83h2.64V12.08H28.07l-1.4-1.3,1.4-1.3Zm-7.41,2.59H21.32l-1.4-1.3,2-1.83,2,1.83Z"/><path class="cls-1" d="M0,.43H7.8A6.06,6.06,0,0,1,12.19,1.9a3.85,3.85,0,0,1,1.16,2.85v0a3.91,3.91,0,0,1-2.2,3.63c1.94.74,3.15,1.87,3.15,4.13v0c0,3.07-2.49,4.61-6.28,4.62H0ZM7,7.22c1.63,0,2.66-.53,2.66-1.78v0c0-1.1-.87-1.73-2.43-1.72H3.6V7.22ZM8,14c1.63,0,2.62-.58,2.61-1.83v0c0-1.13-.84-1.82-2.74-1.82H3.61V14Z"/><path class="cls-1" d="M33.3,8.84v0A8.54,8.54,0,0,1,42,.09a8.67,8.67,0,0,1,6.63,2.58L46.33,5.38A6.2,6.2,0,0,0,42,3.49a5,5,0,0,0-4.87,5.24v0A5,5,0,0,0,42,14.06a6.06,6.06,0,0,0,4.41-2l2.36,2.37a8.59,8.59,0,0,1-6.88,3A8.48,8.48,0,0,1,33.3,8.84Z"/><path class="cls-1" d="M58.21,8.8v0A8.62,8.62,0,0,1,67,.05a9.22,9.22,0,0,1,6.6,2.3L71.29,5.16a6.18,6.18,0,0,0-4.39-1.7A5,5,0,0,0,62.08,8.7v0a5,5,0,0,0,5.1,5.32,5.89,5.89,0,0,0,3.48-1v-2.4H66.93V7.47h7.3v7.3a10.9,10.9,0,0,1-7.17,2.67A8.41,8.41,0,0,1,58.21,8.8Z"/><path class="cls-1" d="M77.76.32h7.68A6.7,6.7,0,0,1,90.34,2a5.28,5.28,0,0,1,1.45,3.84v0a5.22,5.22,0,0,1-3.59,5.21l4.11,6H88l-3.61-5.37h-2.9v5.38h-3.7Zm7.45,8.15c1.8,0,2.83-1,2.83-2.38V6c0-1.58-1.11-2.4-2.91-2.4H81.46V8.48Z"/><path class="cls-1" d="M94.38,8.75v0a8.93,8.93,0,0,1,17.86-.07v0a8.93,8.93,0,0,1-17.86.07Zm14,0v0a5.1,5.1,0,0,0-5.1-5.27,5,5,0,0,0-5,5.24v0a5.1,5.1,0,0,0,5.1,5.27A5,5,0,0,0,108.37,8.73Z"/><path class="cls-1" d="M115.26,9.87V.27h3.7v9.5c0,2.74,1.37,4.15,3.63,4.15s3.62-1.37,3.62-4V.26h3.7V9.73c0,5.09-2.85,7.59-7.36,7.59S115.27,14.82,115.26,9.87Z"/><path class="cls-1" d="M133.65.25h6.86c4,0,6.44,2.37,6.44,5.8v0c0,3.89-3,5.91-6.79,5.92h-2.81v5h-3.7Zm6.64,8.46c1.85,0,2.93-1.11,2.93-2.55v0c0-1.66-1.16-2.54-3-2.54h-2.86V8.71Z"/></svg>