<?xml version="1.0" encoding="utf-8"?>
<!-- Generator: Adobe Illustrator 25.4.1, SVG Export Plug-In . SVG Version: 6.00 Build 0)  -->
<svg version="1.1" id="Layer_1" xmlns="http://www.w3.org/2000/svg" xmlns:xlink="http://www.w3.org/1999/xlink" x="0px" y="0px"
	 viewBox="0 0 179.5 17.4" style="enable-background:new 0 0 179.5 17.4;" xml:space="preserve">
<style type="text/css">
	.st0{fill:#FFFFFF;}
</style>
<g>
	<path class="st0" d="M29.9,9.5V7.6h-2.6l-2,1.8l-2-1.8l0,0l-1.4-1.3l0,0l-1-0.9l0.3-0.2h1.5l0.3,0.2l-0.5,0.5l1.4,1.3l1.9-1.8
		l-2.2-2.1h-3.1l-2.2,2.1l2.4,2.2l-3.4,3.1l3.4,3.1h2.8l2-1.8l2,1.8h2.6v-1.8h-1.8l-1.4-1.3l1.4-1.3H29.9z M22.5,12.1h-1.2l-1.4-1.3
		l2-1.8l2,1.8L22.5,12.1z"/>
	<path class="st0" d="M0,0.4l7.8,0c1.9,0,3.4,0.5,4.4,1.5c0.8,0.8,1.2,1.7,1.2,2.9v0c0,1.9-1,3-2.2,3.6c1.9,0.7,3.1,1.9,3.1,4.1l0,0
		c0,3.1-2.5,4.6-6.3,4.6l-8,0L0,0.4z M7,7.2c1.6,0,2.7-0.5,2.7-1.8v0c0-1.1-0.9-1.7-2.4-1.7l-3.6,0l0,3.6L7,7.2z M8,14
		c1.6,0,2.6-0.6,2.6-1.8v0c0-1.1-0.8-1.8-2.7-1.8l-4.3,0l0,3.7L8,14z"/>
	<path class="st0" d="M33.3,8.8L33.3,8.8c0-4.8,3.6-8.7,8.7-8.8c3.2,0,5.1,1,6.6,2.6l-2.3,2.7C45,4.2,43.7,3.5,42,3.5
		c-2.8,0-4.9,2.4-4.9,5.2v0c0,2.9,2,5.3,4.9,5.3c1.9,0,3.1-0.8,4.4-2l2.4,2.4c-1.7,1.9-3.6,3-6.9,3C37,17.4,33.3,13.6,33.3,8.8z"/>
	<path class="st0" d="M0,0.4l7.8,0c1.9,0,3.4,0.5,4.4,1.5c0.8,0.8,1.2,1.7,1.2,2.9v0c0,1.9-1,3-2.2,3.6c1.9,0.7,3.1,1.9,3.1,4.1v0
		c0,3.1-2.5,4.6-6.3,4.6l-8,0L0,0.4z M7,7.2c1.6,0,2.7-0.5,2.7-1.8v0c0-1.1-0.9-1.7-2.4-1.7l-3.6,0l0,3.6L7,7.2z M8,14
		c1.6,0,2.6-0.6,2.6-1.8v0c0-1.1-0.8-1.8-2.7-1.8l-4.3,0l0,3.7L8,14z"/>
	<path class="st0" d="M33.3,8.8L33.3,8.8c0-4.8,3.6-8.7,8.7-8.8c3.2,0,5.1,1,6.6,2.6l-2.3,2.7C45,4.2,43.7,3.5,42,3.5
		c-2.8,0-4.9,2.4-4.9,5.2v0c0,2.9,2,5.3,4.9,5.3c1.9,0,3.1-0.8,4.4-2l2.4,2.4c-1.7,1.9-3.6,3-6.9,3C37,17.4,33.3,13.6,33.3,8.8z"/>
	<path class="st0" d="M58.2,8.8L58.2,8.8C58.2,4,61.8,0,66.9,0c3.2,0,5.1,1,6.6,2.6l-2.3,2.7c-1.3-1.2-2.6-1.9-4.3-1.9
		c-2.8,0-4.9,2.4-4.9,5.2v0c0,2.9,2,5.3,4.9,5.3c1.9,0,3.1-0.8,4.4-2l2.4,2.4c-1.7,1.8-3.6,3-6.9,3C61.9,17.4,58.2,13.6,58.2,8.8z"
		/>
	<path class="st0" d="M75.4,8.8L75.4,8.8c0-4.8,3.8-8.7,8.9-8.8c5.2,0,8.9,3.9,8.9,8.6v0c0,4.8-3.8,8.7-8.9,8.7
		C79.2,17.4,75.4,13.5,75.4,8.8z M89.4,8.7L89.4,8.7c0-2.9-2.1-5.3-5.1-5.3c-3,0-5,2.4-5,5.2v0c0,2.9,2.1,5.3,5.1,5.3
		C87.4,14,89.4,11.6,89.4,8.7z"/>
	<path class="st0" d="M96.6,0.3l3.4,0l7.9,10.3l0-10.3l3.6,0l0,16.8l-3.1,0l-8.2-10.7l0,10.7l-3.6,0L96.6,0.3z"/>
	<path class="st0" d="M119.4,3.6l-5.1,0l0-3.4l13.9,0l0,3.4l-5.1,0l0,13.4l-3.7,0L119.4,3.6z"/>
	<path class="st0" d="M131.1,0.2l12.7,0l0,3.3l-9,0l0,3.4l7.9,0l0,3.3l-7.9,0l0,3.5l9.1,0l0,3.3l-12.8,0L131.1,0.2z"/>
	<path class="st0" d="M147.2,0.2l3.4,0l7.9,10.3l0-10.3l3.6,0l0,16.8l-3.1,0l-8.2-10.7l0,10.7l-3.6,0L147.2,0.2z"/>
	<path class="st0" d="M170,3.6l-5.1,0l0-3.4l13.9,0l0,3.4l-5.1,0l0,13.4l-3.7,0L170,3.6z"/>
</g>
</svg>
