<svg id="Layer_1" data-name="Layer 1" xmlns="http://www.w3.org/2000/svg" xmlns:xlink="http://www.w3.org/1999/xlink" viewBox="0 0 174.28 181.2"><defs><style>.cls-1{fill:url(#linear-gradient);}.cls-2{fill:url(#linear-gradient-2);}.cls-3{fill:url(#linear-gradient-3);}.cls-4{fill:#184893;}</style><linearGradient id="linear-gradient" x1="134.22" y1="97.34" x2="39.37" y2="2.49" gradientUnits="userSpaceOnUse"><stop offset="0" stop-color="#1a2152"/><stop offset="1" stop-color="#184893"/></linearGradient><linearGradient id="linear-gradient-2" x1="92.18" y1="113.72" x2="174.28" y2="113.72" gradientUnits="userSpaceOnUse"><stop offset="0" stop-color="#263779"/><stop offset="1" stop-color="#184893"/></linearGradient><linearGradient id="linear-gradient-3" x1="39.64" y1="139.85" x2="143.25" y2="36.23" gradientUnits="userSpaceOnUse"><stop offset="0" stop-color="#184893"/><stop offset="0.5" stop-color="#181549"/><stop offset="1" stop-color="#184893"/></linearGradient></defs><title>Artboard 1</title><polygon class="cls-1" points="111.28 118.9 13.56 28.31 44.09 0 86.28 0 116.81 28.31 90.64 52.57 71.55 34.87 78.63 28.31 75.09 25.03 55.28 25.03 51.74 28.31 130.33 101.23 111.28 118.9"/><polygon class="cls-2" points="111.28 83.5 149.46 118.9 174.28 118.9 174.28 143.93 138.28 143.93 92.18 101.2 111.28 83.5"/><polygon class="cls-3" points="138.28 58.47 111.25 83.52 73.09 118.9 57.28 118.9 38.18 101.2 65.18 76.17 46.09 58.47 0 101.2 46.09 143.93 84.28 143.93 120.35 110.49 149.46 83.5 174.28 83.5 174.28 58.47 138.28 58.47"/><path class="cls-4" d="M44.19,173.26v-1.83H41.55l-2,1.84-2-1.83h0l-1.4-1.3h0l-1-.91.26-.24h1.45l.26.24-.52.48,1.4,1.3L40,169.21l-2.24-2.07H34.65l-2.24,2.07,2.38,2.21-3.38,3.13,3.38,3.13h2.8l2-1.83,2,1.83h2.64v-1.83H42.37l-1.4-1.3,1.4-1.3Zm-7.41,2.59H35.62l-1.4-1.3,2-1.83,2,1.83Z"/><path class="cls-4" d="M14.3,164.2h7.8a6.06,6.06,0,0,1,4.39,1.48,3.85,3.85,0,0,1,1.16,2.85v0a3.91,3.91,0,0,1-2.2,3.63c1.94.74,3.15,1.87,3.15,4.13v0c0,3.07-2.49,4.61-6.28,4.62h-8Zm7,6.78c1.63,0,2.66-.53,2.66-1.78v0c0-1.1-.87-1.73-2.43-1.72H17.9V171Zm1,6.77c1.63,0,2.62-.58,2.61-1.83v0c0-1.13-.84-1.82-2.74-1.82H17.91v3.7Z"/><path class="cls-4" d="M47.6,172.61v0a8.54,8.54,0,0,1,8.75-8.7A8.67,8.67,0,0,1,63,166.44l-2.35,2.71a6.2,6.2,0,0,0-4.3-1.89,5,5,0,0,0-4.87,5.24v0a5,5,0,0,0,4.88,5.27,6.06,6.06,0,0,0,4.41-2l2.36,2.37a8.59,8.59,0,0,1-6.88,3A8.48,8.48,0,0,1,47.6,172.61Z"/><path class="cls-4" d="M72.51,172.57v0a8.62,8.62,0,0,1,8.8-8.7,9.22,9.22,0,0,1,6.6,2.3l-2.32,2.81a6.18,6.18,0,0,0-4.39-1.7,5,5,0,0,0-4.82,5.24v0a5,5,0,0,0,5.1,5.32,5.89,5.89,0,0,0,3.48-1v-2.4H81.22v-3.19h7.3v7.3a10.9,10.9,0,0,1-7.17,2.67A8.41,8.41,0,0,1,72.51,172.57Z"/><path class="cls-4" d="M92.06,164.1h7.68a6.7,6.7,0,0,1,4.9,1.7,5.28,5.28,0,0,1,1.45,3.84v0a5.22,5.22,0,0,1-3.59,5.21l4.11,6h-4.32l-3.61-5.37h-2.9v5.38h-3.7Zm7.45,8.15c1.8,0,2.83-1,2.83-2.38v0c0-1.58-1.11-2.4-2.91-2.4H95.76v4.82Z"/><path class="cls-4" d="M108.68,172.52v0a8.93,8.93,0,0,1,17.86-.07v0a8.93,8.93,0,0,1-17.86.07Zm14,0v0a5.1,5.1,0,0,0-5.1-5.27,5,5,0,0,0-5,5.24v0a5.1,5.1,0,0,0,5.1,5.27A5,5,0,0,0,122.67,172.5Z"/><path class="cls-4" d="M129.56,173.64V164h3.7v9.5c0,2.74,1.37,4.15,3.63,4.15s3.62-1.37,3.62-4V164h3.7v9.48c0,5.09-2.85,7.59-7.36,7.59S129.56,178.59,129.56,173.64Z"/><path class="cls-4" d="M148,164h6.86c4,0,6.44,2.37,6.44,5.8v0c0,3.89-3,5.91-6.79,5.92h-2.81v5H148Zm6.64,8.46c1.85,0,2.93-1.11,2.93-2.55v0c0-1.66-1.16-2.54-3-2.54h-2.86v5.14Z"/></svg>