<svg xmlns="http://www.w3.org/2000/svg" width="184.69" height="48.21" viewBox="0 0 184.69 48.21"><path d="M67,15a1.43,1.43,0,0,0,.27.09,4,4,0,0,1,3.85,3.78A42.4,42.4,0,0,1,71,29.41c-.33,2.34-1.76,3.48-4.13,3.63A9.2,9.2,0,0,1,64.8,33a3.77,3.77,0,0,1-3.45-3.84,77,77,0,0,1,0-10.3c.15-2.3,1.36-3.24,3.66-3.69a1.89,1.89,0,0,0,.25-.11Zm1,9.07h0c0-1.66.05-3.32,0-5a1.56,1.56,0,0,0-1.72-1.71,1.61,1.61,0,0,0-1.77,1.66,5.91,5.91,0,0,0,0,.84q0,4.14,0,8.28a6,6,0,0,0,.18,1.46,1.3,1.3,0,0,0,1.12,1A1.68,1.68,0,0,0,68,28.88C68,27.29,68,25.7,68,24.11Z" fill="#fff"/><path d="M111.15,15a1.39,1.39,0,0,0,.26.1c2.36.27,3.55,1.79,3.81,4.08a23.75,23.75,0,0,1,.11,2.8c0,2.25,0,4.5-.12,6.74-.21,2.86-1.84,4.26-4.7,4.32a8.58,8.58,0,0,1-1.68-.11,4,4,0,0,1-3.42-3.52,2.53,2.53,0,0,1-.09-.55c0-3.32-.12-6.65.09-10,.16-2.37,1.4-3.39,3.72-3.8a3.18,3.18,0,0,0,.33-.1Zm-2.68,9.07c0,1.41,0,2.81,0,4.21a5.28,5.28,0,0,0,.15,1.25,1.35,1.35,0,0,0,1.13,1.1c1.34.26,2.2-.31,2.23-1.7.07-3.15.05-6.31.05-9.46a3.51,3.51,0,0,0-.15-1,1.74,1.74,0,0,0-3.26,0,5.28,5.28,0,0,0-.15,1.25C108.46,21.26,108.47,22.68,108.47,24.11Z" fill="#fff"/><path d="M132.54,15c1.15.29,2.3.66,2.82,1.84a15.27,15.27,0,0,1,.77,2.6c0,.11-.17.39-.3.42-.77.16-1.56.27-2.36.41-.09-.56-.14-1-.25-1.52a1.48,1.48,0,0,0-1.77-1.3,1.54,1.54,0,0,0-1.23,1.76,2.84,2.84,0,0,0,1,2c.89.83,1.81,1.63,2.72,2.44a6.53,6.53,0,0,1,2.56,5.16,4.11,4.11,0,0,1-3.9,4.18c-3,.26-5.34-1.17-5.34-5.34l2.67-.52a12.71,12.71,0,0,0,.24,1.46,4.68,4.68,0,0,0,.47,1.23,1.53,1.53,0,0,0,1.77.67,1.36,1.36,0,0,0,1-1.39,3.39,3.39,0,0,0-1.18-2.88c-1.05-1-2.13-1.9-3.19-2.86a5.19,5.19,0,0,1-1.7-5,3.76,3.76,0,0,1,3.16-3.23c.18,0,.35-.1.53-.15Z" fill="#fff"/><path d="M46.43,15c.11,0,.21.09.32.12a3.78,3.78,0,0,1,3.19,3.37c.27,1.33.27,1.33-1.09,1.55l-1.42.23c-.1-.57-.16-1.1-.3-1.61a1.44,1.44,0,0,0-1.69-1.22,1.49,1.49,0,0,0-1.27,1.6,3,3,0,0,0,1.15,2.38c.91.84,1.86,1.64,2.78,2.47a6.1,6.1,0,0,1,2.27,5.47,3.92,3.92,0,0,1-2.71,3.44,4.64,4.64,0,0,1-6.43-4c0-.32-.06-.65-.1-1.06l2.67-.54c.17.74.29,1.44.49,2.13a1.63,1.63,0,0,0,1.28,1.25,1.33,1.33,0,0,0,1.72-1.2,3,3,0,0,0-.79-2.66c-1.1-1.08-2.24-2.12-3.4-3.14a5.41,5.41,0,0,1-1.85-5.24,3.79,3.79,0,0,1,3.16-3.15c.21,0,.41-.1.61-.15Z" fill="#fff"/><path d="M96.66,15l.6.16a4.3,4.3,0,0,1,3,4.37.51.51,0,0,1-.33.34c-.75.16-1.51.27-2.31.4-.11-.58-.17-1.11-.3-1.62a1.44,1.44,0,0,0-1.63-1.22,1.49,1.49,0,0,0-1.34,1.62,2.67,2.67,0,0,0,.92,2.12c1,.89,1.94,1.76,2.92,2.63a6.2,6.2,0,0,1,2.37,5.58,3.91,3.91,0,0,1-2.93,3.47c-2.79.66-5.77-.15-6.22-4.18,0-.3,0-.61-.08-1l2.69-.53c.13.68.2,1.31.37,1.91a1.8,1.8,0,0,0,1.28,1.45,1.34,1.34,0,0,0,1.8-1.23,3,3,0,0,0-.81-2.65q-1.65-1.59-3.36-3.09a5.36,5.36,0,0,1-1.92-4.82,3.86,3.86,0,0,1,3.21-3.58c.21,0,.41-.1.61-.15Z" fill="#fff"/><path d="M0,15.32H8.77v2.29H6.05V32.82H2.85V17.57H0Z" fill="#fff"/><path d="M116.68,15.18c2.16.1,4.3.05,6.4.34s3.15,2,3,4.45c-.07,1.57-.52,2.87-2.25,3.4.08.06.11.11.16.12a3.24,3.24,0,0,1,2.49,3.05,11.53,11.53,0,0,1-.24,3.47,3.41,3.41,0,0,1-3.17,2.69c-2.11.16-4.24,0-6.42,0Zm3.16,9.44v5.92a17.57,17.57,0,0,0,1.79,0A1.67,1.67,0,0,0,123.39,29a10.6,10.6,0,0,0,0-2.64,1.75,1.75,0,0,0-1.54-1.54C121.22,24.67,120.59,24.67,119.84,24.62Zm0-2.18c1.09-.05,2.23.27,3-.75a3.6,3.6,0,0,0,.09-3.3c-.8-1.09-2-.82-3.11-.84Z" fill="#fff"/><path d="M182.25,24.21c.82,2.9,1.61,5.73,2.44,8.65-1.06,0-2,0-2.93,0-.15,0-.36-.3-.42-.51-.59-2.14-1.15-4.29-1.71-6.43-.33-1.24-.38-1.27-1.76-1v7.93h-3.18V15.41c.05,0,.08-.09.12-.09,2.08,0,4.17,0,6.23.18s3.14,1.54,3.29,3.65a12.26,12.26,0,0,1,0,2.1A3.32,3.32,0,0,1,182.25,24.21Zm-4.35-6.76v5.27c1.59.2,2.62-.07,3.08-.79a4.14,4.14,0,0,0,0-3.71C180.15,17.21,179,17.49,177.9,17.45Z" fill="#fff"/><path d="M145.38,15.17c2.22.11,4.4.1,6.54.37a3.28,3.28,0,0,1,3,3.22,14.33,14.33,0,0,1-.14,3.2,2.93,2.93,0,0,1-1.88,2.26l2.44,8.64c-1,0-2,0-2.89,0-.17,0-.42-.31-.47-.52-.59-2.15-1.15-4.3-1.72-6.45-.31-1.2-.3-1.2-1.71-1v7.94h-3.18Zm3.21,2.26v5.36c1.13-.05,2.37.25,3-.89a3.49,3.49,0,0,0,0-3.62C151,17.17,149.72,17.51,148.59,17.43Z" fill="#fff"/><path d="M16.14,32.8V25H12.59V32.8H9.42V15.33h3.14v7.26H16.1V15.34h3.23V32.8Z" fill="#fff"/><path d="M80.14,24.2c.82,2.91,1.62,5.74,2.45,8.66-1,0-2,0-2.93,0-.16,0-.38-.35-.44-.57C78.6,30,78,27.7,77.42,25.41c-.2-.84-.75-.6-1.24-.61-.65,0-.42.5-.43.82,0,2.13,0,4.26,0,6.39v.8H72.61V15.26c2.27.1,4.52-.23,6.73.3a3.43,3.43,0,0,1,2.84,3.24,13,13,0,0,1-.08,2.93A3,3,0,0,1,80.14,24.2ZM75.8,17.44v5.35c1.15-.05,2.43.26,3.09-.93a3.49,3.49,0,0,0-.09-3.63C78.11,17.16,76.9,17.5,75.8,17.44Z" fill="#fff"/><path d="M54.29,32.82H51.12V15.31c.26,0,.51,0,.76,0,1.62,0,3.24,0,4.85,0a3.61,3.61,0,0,1,3.83,3.37,10.06,10.06,0,0,1,0,3A3.81,3.81,0,0,1,56.66,25c-.76,0-1.53,0-2.37,0Zm0-10c1.09-.08,2.38.38,3-.79a3.76,3.76,0,0,0,0-3.77c-.66-1.07-1.91-.61-3-.67Z" fill="#fff"/><path d="M162.19,32.84H159c-1.18-5.82-2.35-11.63-3.54-17.56.88,0,1.72,0,2.54,0,.16,0,.37.37.41.59.71,3.7,1.4,7.4,2.1,11.11a.43.43,0,0,0,.17.28c.19-1,.37-2,.55-3,.48-2.79,1-5.58,1.44-8.37.08-.49.27-.67.77-.64.72,0,1.45,0,2.28,0Z" fill="#fff"/><path d="M137.12,32.8V15.32h7.33v2.19h-4.11v5.06h3.23v2.27h-3.24V30.6h4.12v2.2Z" fill="#fff"/><path d="M33.41,15.32h7.31v2.19H36.65v5h3.16v2.28H36.65v5.79h4.1v2.19H33.41Z" fill="#fff"/><path d="M21,15.31h7.25v2.22h-4v5h3.16v2.26H24.25v5.8h4.12v2.2H21Z" fill="#fff"/><path d="M166.48,15.32h7.29v2.19h-4.05v5h3.16v2.25h-3.16v5.81h4.1v2.19h-7.34Z" fill="#fff"/><path d="M88.52,32.83H85.33V17.63h-2.8V15.32h8.74v2.3H88.52Z" fill="#fff"/></svg>